PathFileType	4	(X/Y/Z)	7_coords_data.trc
DataRate	CameraRate	NumFrames	NumMarkers	Units	OrigDataRate	OrigDataStartFrame	OrigNumFrames
30.0	30.0	9	21	m	30.0	1	50
Frame#	Time	THUMB_TIP	THUMB_IP	THUMB_MCP	THUMB_CMC	INDEX_TIP	INDEX_DIP	INDEX_PIP	INDEX_MCP	MIDDLE_TIP	MIDDLE_DIP	MIDDLE_PIP	MIDDLE_MCP	RING_TIP	RING_DIP	RING_PIP	RING_MCP	PINKY_TIP	PINKY_DIP	PINKY_PIP	PINKY_MCP	WRIST
X1	Y1	Z1	X2	Y2	Z2	X3	Y3	Z3	X4	Y4	Z4	X5	Y5	Z5	X6	Y6	Z6	X7	Y7	Z7	X8	Y8	Z8	X9	Y9	Z9	X10	Y10	Z10	X11	Y11	Z11	X12	Y12	Z12	X13	Y13	Z13	X14	Y14	Z14	X15	Y15	Z15	X16	Y16	Z16	X17	Y17	Z17	X18	Y18	Z18	X19	Y19	Z19	X20	Y20	Z20	X21	Y21	Z21
0	-2.749317978547796e-18	0.5322651542871657	-0.029998357200314185	-0.12579764662028411	0.5104348953419787	-0.029090785073981884	-0.1329121464074505	0.4824979413917393	-0.02528037251973858	-0.11972778596984604	0.4713174072654793	-0.03306023637993161	-0.0772500344407408	0.5573715269067387	0.07731256995104929	-0.14328452873771583	0.5443425049361811	0.06574311782351883	-0.1383456661197127	0.5275280065971751	0.04871177178118635	-0.13065049031964865	0.5018378093445203	0.019287578546202555	-0.11368385507308243	0.5137444502116348	-0.022443719128740325	-0.12331033495375421	0.5314500734214207	-0.021714712806042313	-0.127049246096662	0.5464432467606009	0.0020458061026348284	-0.11929992068010475	0.5172129151770393	0.022006388873656024	-0.09203619437652968	0.5292449665129924	-0.0288852223757583	-0.10882147088586125	0.5451635716476038	-0.020479321090069003	-0.10785253634546807	0.5588338014079771	-0.001570298340935028	-0.09914887872517172	0.5306285343511716	0.012533938804555778	-0.07384563310730599	0.5953082492772425	0.0287446674328925	-0.05645385797955521	0.581267765326569	0.019328023411233297	-0.059135578658565446	0.5635817952108542	0.008283579367077909	-0.06159296259713892	0.5334527094986542	-0.010659532412911732	-0.06744788883388494	0.4622830810018608	-0.023011742144276925	-0.05198982011943101
1	0.03333333333333339	0.532465931008065	-0.029938627210759572	-0.12665960023520892	0.5105555541312858	-0.029206300695324372	-0.13354429942923943	0.48257220281653557	-0.024896223378277682	-0.12061467133264114	0.4716265473498027	-0.031137054772675143	-0.07782291219714538	0.5566489738216702	0.07769605003228419	-0.14383603403054404	0.5437950723661382	0.06601376352818433	-0.13870754503205765	0.5269617389246111	0.04913732347123845	-0.1307178961504935	0.5014582970495901	0.019557311717303016	-0.11374045667439822	0.5133018413285669	-0.021892144037215622	-0.12376524252756882	0.5309687165468429	-0.02106306516017442	-0.12766320972054476	0.5460358546535652	0.0027524373554993486	-0.12023268220233385	0.5167590949866395	0.022082256842636205	-0.09256722823895597	0.5288698791594786	-0.028051490749100627	-0.1096303507239216	0.5450648739999271	-0.02014623543356797	-0.10915172716193097	0.5583319898525272	-0.0010474638855826335	-0.10024102902365054	0.5299875439225481	0.012991879415329644	-0.07505750149866669	0.5957190817011857	0.02800871645741898	-0.05747928670151253	0.5815622462313526	0.018781060294126295	-0.060205891038799975	0.5637703401914926	0.008005866863067257	-0.06306164050121066	0.5330940755985576	-0.010131410417104414	-0.0686194651193878	0.4622830810018609	-0.023011742144276925	-0.051989820119430985
2	0.06666666666666676	0.5325754822530546	-0.029787105924639512	-0.12717838039734292	0.5106044962238828	-0.029190740043860464	-0.1338806278295241	0.4825888710664149	-0.0245101754356446	-0.1211512499191715	0.47182005744141586	-0.02966629418260902	-0.0781705904014624	0.5561155379277993	0.07806820015569849	-0.14415579623129737	0.543387364240693	0.06631215177932148	-0.1388842764159939	0.5265345614212994	0.04956201745900379	-0.1306729506776035	0.5011630525341852	0.01985357436392665	-0.11372210882070291	0.512978933885438	-0.02135385980566762	-0.12407663666607363	0.5306112193353365	-0.020434839526219717	-0.12810874672648367	0.5457277828134972	0.0034120860033639566	-0.12088218451494553	0.5164052750135657	0.022208160722050563	-0.0928992248342308	0.5286149489704657	-0.027341901722014228	-0.11022420446318085	0.5449839808596861	-0.019789974392261045	-0.1100719263760665	0.5579552218255462	-0.0005687805327423412	-0.10099048412164491	0.5294928436215809	0.013375508659505098	-0.07588728392929073	0.5959819618206256	0.027487999825828835	-0.058204157543662705	0.5817335808357288	0.018413567792997854	-0.06096790908654104	0.5638649393637046	0.007851142157902724	-0.06412367137913319	0.5328038007977725	-0.009682534567951762	-0.06947710975658672	0.4622830810018609	-0.023011742144276925	-0.05198982011943096
3	0.10000000000000014	0.5326382784198099	-0.02955078931184807	-0.12749163808155808	0.5106219080789103	-0.029057167095601577	-0.13405180378982975	0.48258310532908555	-0.024127554723532008	-0.1214683041884645	0.47193551044481197	-0.02858661893905401	-0.07837961112981806	0.5557471916636654	0.07843161483389594	-0.14427596984150043	0.5430992105575215	0.06663535008460053	-0.13890226423892413	0.5262249935315575	0.049983268147587356	-0.13053693101641195	0.5009419699235945	0.020167771901564602	-0.11364193190890703	0.5127596439175091	-0.020836299132873326	-0.12427566210329177	0.530362469142754	-0.01983866648083754	-0.12841634721340017	0.5455085494189799	0.00402081833394663	-0.12129379243023361	0.5161391981214424	0.02237362818869959	-0.09306679301837417	0.5284411824053117	-0.026729216728200167	-0.11063927314551794	0.5449188065023501	-0.019415853103940672	-0.11069042601501378	0.5576869033674061	-0.00012565253708307633	-0.10146850411472896	0.5291274985879787	0.013700034529409488	-0.07640994051295313	0.5961551669575882	0.02713841957484775	-0.05867045258744308	0.5818350254478798	0.018186962786832517	-0.061464189961324245	0.5639095455268885	0.007789578910774142	-0.06483814863564463	0.5325838595839429	-0.00930692621316842	-0.07006254943869894	0.462283081001861	-0.023011742144276925	-0.05198982011943096
4	0.13333333333333353	0.5326803529044677	-0.029237399550190002	-0.12768389685654055	0.5106306680198096	-0.028818337055322774	-0.1341364764269663	0.48257444350767187	-0.023749019235041358	-0.12164767012045699	0.47199818893149625	-0.027834800657271952	-0.07850442929052309	0.5555220242170857	0.0787847082319616	-0.1442279433750073	0.5429137509130886	0.06697671658730298	-0.13878709990993834	0.5260154674873839	0.05039641933406991	-0.13032828242408406	0.5007858788648678	0.020491255473281456	-0.11351206625046167	0.5126288529497104	-0.0203456438219497	-0.12438561645174134	0.5302078440863638	-0.01928123998536946	-0.12861008270088245	0.5453675715340838	0.0045755773149653844	-0.12150765480548659	0.5159494773438061	0.02256793875409613	-0.09309993428701421	0.5283244243841229	-0.026197007778298365	-0.1109063873177894	0.5448665884797783	-0.019032439905842358	-0.11106693087381572	0.5575106726304218	0.00028425479084170924	-0.10173031366057703	0.5288743661428424	0.013974817496035685	-0.07668532858243055	0.5962764032243694	0.026920543974039757	-0.058919648875854214	0.5819000487632229	0.018066998520849475	-0.06173659142332738	0.5639310395705548	0.007795263824483589	-0.06526053721764433	0.532431198861482	-0.008999382605128003	-0.07041644039821052	0.4622830810018609	-0.023011742144276925	-0.05198982011943096
5	0.1666666666666669	0.5327150735800469	-0.028860237612610362	-0.1278036205341534	0.5106417661631856	-0.028491834924498693	-0.1341780522060853	0.48257200662139954	-0.023376720989020883	-0.12173842967590404	0.47202475779947095	-0.02735292982555415	-0.07857785385054461	0.555419423659996	0.07912275550352565	-0.14404306995214608	0.5428162458854392	0.0673268450727309	-0.13856434682612653	0.5258910383049125	0.0507953743192302	-0.13006389648027808	0.5006863384086193	0.02081525746415147	-0.11334409413414889	0.5125723203233897	-0.019887489711257866	-0.12442418576387321	0.5301331107953603	-0.018768003541222322	-0.12870967158401625	0.5452942820123547	0.005073886694677454	-0.12156035642042953	0.5158255276158944	0.02278014607434653	-0.0930256615017698	0.5282490426526809	-0.02573630378956926	-0.11105221791836964	0.5448246632497152	-0.018650407902734534	-0.11124940134595587	0.5574110764425322	0.0006591347336099007	-0.10182052309269149	0.5287168032355308	0.014205265857045846	-0.0767633514504519	0.5963698523780899	0.026798686494618917	-0.058992563360109884	0.5819491504010701	0.018022919613284394	-0.06182616003826402	0.563945120194417	0.007845356368320622	-0.0654433580854665	0.5323392538678549	-0.008755379584176048	-0.07057835862908635	0.462283081001861	-0.023011742144276925	-0.051989820119430985
6	0.20000000000000023	0.5327477487911304	-0.028438633719627737	-0.12787647177387348	0.5106586657677047	-0.02810074662900308	-0.13419772509091416	0.48257845464596205	-0.02301595820132729	-0.12176926299763252	0.472026305959663	-0.02708949532985061	-0.07861896226444201	0.5554196430659677	0.07943875060791983	-0.14375307916539917	0.542793340166438	0.06767430592298063	-0.13825996380666783	0.5258385002008538	0.051172974768944	-0.12976000469581037	0.5006354627628091	0.02113084339660498	-0.11314936531908393	0.5125764989343253	-0.019467360273234924	-0.12440533719673719	0.530124292399472	-0.01830374709514626	-0.12873210838046462	0.5452781966701299	0.005513599500030164	-0.12148623117194313	0.5157574597367297	0.022999070863734317	-0.09286923791447349	0.5282043863434726	-0.025342935941463418	-0.11110050195971932	0.5447907952119944	-0.01828181786953842	-0.11127841323131138	0.5573737133794803	0.0009944958766264778	-0.10177715659075204	0.5286388574924654	0.014394103038377182	-0.07668772815837732	0.5964511363538519	0.02673983617202269	-0.05892951275997896	0.5819946529695136	0.018026466343752268	-0.061773326114286126	0.5639604618497143	0.007919183424298093	-0.06543704030082675	0.532299165645178	-0.008570921355320893	-0.07058701292267708	0.4622830810018609	-0.023011742144276925	-0.05198982011943096
7	0.23333333333333361	0.5327790405361444	-0.027996624352793265	-0.12791492750939218	0.5106805418089791	-0.0276725078283917	-0.13420391013650124	0.48259275704396587	-0.022674904616347802	-0.12175721141237114	0.4720105694730674	-0.026998009523753308	-0.07863856034147265	0.5555035664654362	0.07972412144666163	-0.1433903131383611	0.5428325862882527	0.06800624770710328	-0.1379005320522716	0.5258457527846273	0.05152124829280336	-0.12943282192316102	0.5006257740666697	0.021428881287844592	-0.1129392408837189	0.5126283178522303	-0.019091054413247432	-0.12434090022952402	0.5301675467607749	-0.017893075767346445	-0.12869294531863307	0.5453089530065807	0.005892705333331194	-0.12131839554728202	0.5157359642502065	0.023213292076336267	-0.09265511709045848	0.5281826429758221	-0.025015558893665024	-0.11107314650808836	0.5447632858195026	-0.01793964698222361	-0.11119042187562159	0.55738514016237	0.001284194585370324	-0.10163465464679608	0.5286252355336589	0.014542255551710181	-0.07649877313927231	0.5965308359806384	0.026712689387279775	-0.05877057895006094	0.5820440929628332	0.0180509723777712	-0.06161819816323888	0.5639816699678644	0.007997450931594319	-0.0652907451108066	0.5323007349012516	-0.008442374246794282	-0.07048053820967662	0.4622830810018608	-0.023011742144276925	-0.05198982011943096
7	0.2666666666666655	0.5328074251437717	-0.027561096767560467	-0.12792510154116762	0.5107046140233626	-0.027237182647120273	-0.13419892176636553	0.4826120991621716	-0.02236363319816248	-0.12171376559824615	0.4719834968470036	-0.02703495785132848	-0.07864287590682312	0.555652566318311	0.07996931032413801	-0.1429878577810699	0.5429221141370588	0.06830888222516862	-0.137513371155859	0.5259013294838165	0.051831589386810095	-0.12909900584961417	0.500650077639862	0.02170002871704313	-0.11272526388519616	0.5127149776735219	-0.018764838092722003	-0.12424183416089007	0.5302490729360265	-0.017540734363827193	-0.1286072749618081	0.5453763280016968	0.0062091985655543525	-0.12108953660323024	0.5157521961709799	0.023411150803469005	-0.09240763336301955	0.5281774241342642	-0.024754201402872766	-0.11099112476763112	0.544740972681323	-0.017637459491131824	-0.11102017801014163	0.5574326881479794	0.0015211853298112699	-0.10142608263129588	0.5286611906369667	0.014649509201652089	-0.07623543203846986	0.5966169696058798	0.026686867758076604	-0.058555862637456324	0.5821026087837355	0.018070637346906948	-0.06140084127116144	0.5640113706394504	0.008061621421254661	-0.06505306273306627	0.5323331454557323	-0.008366309958673379	-0.07029678000099956	0.4622830810018609	-0.023011742144276925	-0.051989820119430985
